<svg t="1708319108143" class="icon" viewBox="0 0 1024 1024" version="1.1" xmlns="http://www.w3.org/2000/svg" p-id="1742" width="200" height="200"><path d="M926.464 731.4432h48.7936v48.7424h-48.7936zM926.464 682.6496h48.7936v48.7936h-48.7936zM926.464 633.9072h48.7936v48.7424h-48.7936zM926.464 585.1648h48.7936v48.7424h-48.7936zM926.464 536.3712h48.7936v48.7936h-48.7936zM926.464 487.6288h48.7936v48.7424h-48.7936zM926.464 438.8352h48.7936v48.7936h-48.7936zM926.464 390.0928h48.7936v48.7424h-48.7936zM926.464 341.3504h48.7936v48.7424h-48.7936zM926.464 292.5568h48.7936v48.7936h-48.7936zM926.464 243.8144h48.7936v48.7424h-48.7936z" fill="#012777" p-id="1743"></path><path d="M877.7216 780.1856h48.7424v48.7424h-48.7424z" fill="#012777" p-id="1744"></path><path d="M877.7216 731.4432h48.7424v48.7424h-48.7424zM877.7216 682.6496h48.7424v48.7936h-48.7424zM877.7216 633.9072h48.7424v48.7424h-48.7424zM877.7216 585.1648h48.7424v48.7424h-48.7424zM877.7216 536.3712h48.7424v48.7936h-48.7424zM877.7216 487.6288h48.7424v48.7424h-48.7424zM877.7216 438.8352h48.7424v48.7936h-48.7424zM877.7216 390.0928h48.7424v48.7424h-48.7424zM877.7216 341.3504h48.7424v48.7424h-48.7424zM877.7216 292.5568h48.7424v48.7936h-48.7424zM877.7216 243.8144h48.7424v48.7424h-48.7424z" fill="#DEE6FC" p-id="1745"></path><path d="M877.7216 195.072h48.7424v48.7424h-48.7424zM828.928 780.1856h48.7936v48.7424h-48.7936z" fill="#012777" p-id="1746"></path><path d="M828.928 731.4432h48.7936v48.7424h-48.7936z" fill="#DEE6FC" p-id="1747"></path><path d="M828.928 682.6496h48.7936v48.7936h-48.7936zM828.928 633.9072h48.7936v48.7424h-48.7936z" fill="#DD75A1" p-id="1748"></path><path d="M828.928 585.1648h48.7936v48.7424h-48.7936zM828.928 536.3712h48.7936v48.7936h-48.7936z" fill="#012777" p-id="1749"></path><path d="M828.928 487.6288h48.7936v48.7424h-48.7936zM828.928 438.8352h48.7936v48.7936h-48.7936zM828.928 390.0928h48.7936v48.7424h-48.7936zM828.928 341.3504h48.7936v48.7424h-48.7936zM828.928 292.5568h48.7936v48.7936h-48.7936z" fill="#DD75A1" p-id="1750"></path><path d="M828.928 243.8144h48.7936v48.7424h-48.7936z" fill="#DEE6FC" p-id="1751"></path><path d="M828.928 195.072h48.7936v48.7424h-48.7936zM780.1856 780.1856h48.7424v48.7424h-48.7424z" fill="#012777" p-id="1752"></path><path d="M780.1856 731.4432h48.7424v48.7424h-48.7424z" fill="#DEE6FC" p-id="1753"></path><path d="M780.1856 682.6496h48.7424v48.7936h-48.7424z" fill="#DD75A1" p-id="1754"></path><path d="M780.1856 633.9072h48.7424v48.7424h-48.7424z" fill="#012777" p-id="1755"></path><path d="M780.1856 585.1648h48.7424v48.7424h-48.7424zM780.1856 536.3712h48.7424v48.7936h-48.7424z" fill="#DEE6FC" p-id="1756"></path><path d="M780.1856 487.6288h48.7424v48.7424h-48.7424z" fill="#012777" p-id="1757"></path><path d="M780.1856 438.8352h48.7424v48.7936h-48.7424zM780.1856 390.0928h48.7424v48.7424h-48.7424zM780.1856 341.3504h48.7424v48.7424h-48.7424zM780.1856 292.5568h48.7424v48.7936h-48.7424z" fill="#DD75A1" p-id="1758"></path><path d="M780.1856 243.8144h48.7424v48.7424h-48.7424z" fill="#DEE6FC" p-id="1759"></path><path d="M780.1856 195.072h48.7424v48.7424h-48.7424zM731.4432 877.7216h48.7424v48.7424h-48.7424zM731.4432 828.928h48.7424v48.7936h-48.7424zM731.4432 780.1856h48.7424v48.7424h-48.7424z" fill="#012777" p-id="1760"></path><path d="M731.4432 731.4432h48.7424v48.7424h-48.7424zM731.4432 682.6496h48.7424v48.7936h-48.7424zM731.4432 633.9072h48.7424v48.7424h-48.7424z" fill="#012777" p-id="1761"></path><path d="M731.4432 585.1648h48.7424v48.7424h-48.7424zM731.4432 536.3712h48.7424v48.7936h-48.7424z" fill="#DEE6FC" p-id="1762"></path><path d="M731.4432 487.6288h48.7424v48.7424h-48.7424z" fill="#012777" p-id="1763"></path><path d="M731.4432 438.8352h48.7424v48.7936h-48.7424zM731.4432 390.0928h48.7424v48.7424h-48.7424zM731.4432 341.3504h48.7424v48.7424h-48.7424zM731.4432 292.5568h48.7424v48.7936h-48.7424z" fill="#DD75A1" p-id="1764"></path><path d="M731.4432 243.8144h48.7424v48.7424h-48.7424z" fill="#DEE6FC" p-id="1765"></path><path d="M731.4432 195.072h48.7424v48.7424h-48.7424zM731.4432 146.2784h48.7424v48.7936h-48.7424zM731.4432 97.536h48.7424v48.7424h-48.7424zM682.6496 926.464h48.7936v48.7936h-48.7936z" fill="#012777" p-id="1766"></path><path d="M682.6496 877.7216h48.7936v48.7424h-48.7936zM682.6496 828.928h48.7936v48.7936h-48.7936zM682.6496 780.1856h48.7936v48.7424h-48.7936z" fill="#375AA4" p-id="1767"></path><path d="M682.6496 731.4432h48.7936v48.7424h-48.7936zM682.6496 682.6496h48.7936v48.7936h-48.7936z" fill="#375AA4" p-id="1768"></path><path d="M682.6496 633.9072h48.7936v48.7424h-48.7936z" fill="#A2D8EA" p-id="1769"></path><path d="M682.6496 585.1648h48.7936v48.7424h-48.7936z" fill="#012777" p-id="1770"></path><path d="M682.6496 536.3712h48.7936v48.7936h-48.7936z" fill="#DEE6FC" p-id="1771"></path><path d="M682.6496 487.6288h48.7936v48.7424h-48.7936z" fill="#012777" p-id="1772"></path><path d="M682.6496 438.8352h48.7936v48.7936h-48.7936zM682.6496 390.0928h48.7936v48.7424h-48.7936zM682.6496 341.3504h48.7936v48.7424h-48.7936zM682.6496 292.5568h48.7936v48.7936h-48.7936z" fill="#DD75A1" p-id="1773"></path><path d="M682.6496 243.8144h48.7936v48.7424h-48.7936z" fill="#DEE6FC" p-id="1774"></path><path d="M682.6496 195.072h48.7936v48.7424h-48.7936z" fill="#012777" p-id="1775"></path><path d="M682.6496 146.2784h48.7936v48.7936h-48.7936zM682.6496 97.536h48.7936v48.7424h-48.7936z" fill="#375AA4" p-id="1776"></path><path d="M682.6496 48.7424h48.7936v48.7936h-48.7936zM633.9072 926.464h48.7424v48.7936h-48.7424z" fill="#012777" p-id="1777"></path><path d="M633.9072 877.7216h48.7424v48.7424h-48.7424zM633.9072 828.928h48.7424v48.7936h-48.7424zM633.9072 780.1856h48.7424v48.7424h-48.7424z" fill="#375AA4" p-id="1778"></path><path d="M633.9072 731.4432h48.7424v48.7424h-48.7424z" fill="#375AA4" p-id="1779"></path><path d="M633.9072 682.6496h48.7424v48.7936h-48.7424zM633.9072 633.9072h48.7424v48.7424h-48.7424z" fill="#A2D8EA" p-id="1780"></path><path d="M633.9072 585.1648h48.7424v48.7424h-48.7424z" fill="#012777" p-id="1781"></path><path d="M633.9072 536.3712h48.7424v48.7936h-48.7424z" fill="#DEE6FC" p-id="1782"></path><path d="M633.9072 487.6288h48.7424v48.7424h-48.7424z" fill="#012777" p-id="1783"></path><path d="M633.9072 438.8352h48.7424v48.7936h-48.7424zM633.9072 390.0928h48.7424v48.7424h-48.7424zM633.9072 341.3504h48.7424v48.7424h-48.7424zM633.9072 292.5568h48.7424v48.7936h-48.7424z" fill="#DD75A1" p-id="1784"></path><path d="M633.9072 243.8144h48.7424v48.7424h-48.7424z" fill="#DEE6FC" p-id="1785"></path><path d="M633.9072 195.072h48.7424v48.7424h-48.7424z" fill="#012777" p-id="1786"></path><path d="M633.9072 146.2784h48.7424v48.7936h-48.7424z" fill="#375AA4" p-id="1787"></path><path d="M633.9072 97.536h48.7424v48.7424h-48.7424z" fill="#A2D8EA" p-id="1788"></path><path d="M633.9072 48.7424h48.7424v48.7936h-48.7424zM585.1648 926.464h48.7424v48.7936h-48.7424z" fill="#012777" p-id="1789"></path><path d="M585.1648 877.7216h48.7424v48.7424h-48.7424zM585.1648 828.928h48.7424v48.7936h-48.7424zM585.1648 780.1856h48.7424v48.7424h-48.7424z" fill="#375AA4" p-id="1790"></path><path d="M585.1648 731.4432h48.7424v48.7424h-48.7424z" fill="#375AA4" p-id="1791"></path><path d="M585.1648 682.6496h48.7424v48.7936h-48.7424zM585.1648 633.9072h48.7424v48.7424h-48.7424z" fill="#A2D8EA" p-id="1792"></path><path d="M585.1648 585.1648h48.7424v48.7424h-48.7424z" fill="#012777" p-id="1793"></path><path d="M585.1648 536.3712h48.7424v48.7936h-48.7424z" fill="#DEE6FC" p-id="1794"></path><path d="M585.1648 487.6288h48.7424v48.7424h-48.7424z" fill="#012777" p-id="1795"></path><path d="M585.1648 438.8352h48.7424v48.7936h-48.7424zM585.1648 390.0928h48.7424v48.7424h-48.7424zM585.1648 341.3504h48.7424v48.7424h-48.7424zM585.1648 292.5568h48.7424v48.7936h-48.7424z" fill="#DD75A1" p-id="1796"></path><path d="M585.1648 243.8144h48.7424v48.7424h-48.7424z" fill="#DEE6FC" p-id="1797"></path><path d="M585.1648 195.072h48.7424v48.7424h-48.7424z" fill="#012777" p-id="1798"></path><path d="M585.1648 146.2784h48.7424v48.7936h-48.7424z" fill="#375AA4" p-id="1799"></path><path d="M585.1648 97.536h48.7424v48.7424h-48.7424z" fill="#A2D8EA" p-id="1800"></path><path d="M585.1648 48.7424h48.7424v48.7936h-48.7424zM536.3712 926.464h48.7936v48.7936h-48.7936z" fill="#012777" p-id="1801"></path><path d="M536.3712 877.7216h48.7936v48.7424h-48.7936zM536.3712 828.928h48.7936v48.7936h-48.7936zM536.3712 780.1856h48.7936v48.7424h-48.7936z" fill="#375AA4" p-id="1802"></path><path d="M536.3712 731.4432h48.7936v48.7424h-48.7936z" fill="#375AA4" p-id="1803"></path><path d="M536.3712 682.6496h48.7936v48.7936h-48.7936zM536.3712 633.9072h48.7936v48.7424h-48.7936z" fill="#A2D8EA" p-id="1804"></path><path d="M536.3712 585.1648h48.7936v48.7424h-48.7936z" fill="#012777" p-id="1805"></path><path d="M536.3712 536.3712h48.7936v48.7936h-48.7936z" fill="#DEE6FC" p-id="1806"></path><path d="M536.3712 487.6288h48.7936v48.7424h-48.7936z" fill="#012777" p-id="1807"></path><path d="M536.3712 438.8352h48.7936v48.7936h-48.7936zM536.3712 390.0928h48.7936v48.7424h-48.7936zM536.3712 341.3504h48.7936v48.7424h-48.7936zM536.3712 292.5568h48.7936v48.7936h-48.7936z" fill="#DD75A1" p-id="1808"></path><path d="M536.3712 243.8144h48.7936v48.7424h-48.7936z" fill="#DEE6FC" p-id="1809"></path><path d="M536.3712 195.072h48.7936v48.7424h-48.7936z" fill="#012777" p-id="1810"></path><path d="M536.3712 146.2784h48.7936v48.7936h-48.7936z" fill="#375AA4" p-id="1811"></path><path d="M536.3712 97.536h48.7936v48.7424h-48.7936z" fill="#A2D8EA" p-id="1812"></path><path d="M536.3712 48.7424h48.7936v48.7936h-48.7936zM487.6288 926.464h48.7424v48.7936h-48.7424z" fill="#012777" p-id="1813"></path><path d="M487.6288 877.7216h48.7424v48.7424h-48.7424zM487.6288 828.928h48.7424v48.7936h-48.7424zM487.6288 780.1856h48.7424v48.7424h-48.7424z" fill="#375AA4" p-id="1814"></path><path d="M487.6288 731.4432h48.7424v48.7424h-48.7424zM487.6288 682.6496h48.7424v48.7936h-48.7424zM487.6288 633.9072h48.7424v48.7424h-48.7424z" fill="#A2D8EA" p-id="1815"></path><path d="M487.6288 585.1648h48.7424v48.7424h-48.7424z" fill="#012777" p-id="1816"></path><path d="M487.6288 536.3712h48.7424v48.7936h-48.7424z" fill="#DEE6FC" p-id="1817"></path><path d="M487.6288 487.6288h48.7424v48.7424h-48.7424z" fill="#012777" p-id="1818"></path><path d="M487.6288 438.8352h48.7424v48.7936h-48.7424zM487.6288 390.0928h48.7424v48.7424h-48.7424zM487.6288 341.3504h48.7424v48.7424h-48.7424zM487.6288 292.5568h48.7424v48.7936h-48.7424z" fill="#DD75A1" p-id="1819"></path><path d="M487.6288 243.8144h48.7424v48.7424h-48.7424z" fill="#DEE6FC" p-id="1820"></path><path d="M487.6288 195.072h48.7424v48.7424h-48.7424z" fill="#012777" p-id="1821"></path><path d="M487.6288 146.2784h48.7424v48.7936h-48.7424z" fill="#375AA4" p-id="1822"></path><path d="M487.6288 97.536h48.7424v48.7424h-48.7424z" fill="#A2D8EA" p-id="1823"></path><path d="M487.6288 48.7424h48.7424v48.7936h-48.7424zM438.8352 926.464h48.7936v48.7936h-48.7936z" fill="#012777" p-id="1824"></path><path d="M438.8352 877.7216h48.7936v48.7424h-48.7936zM438.8352 828.928h48.7936v48.7936h-48.7936zM438.8352 780.1856h48.7936v48.7424h-48.7936z" fill="#375AA4" p-id="1825"></path><path d="M438.8352 731.4432h48.7936v48.7424h-48.7936zM438.8352 682.6496h48.7936v48.7936h-48.7936zM438.8352 633.9072h48.7936v48.7424h-48.7936z" fill="#A2D8EA" p-id="1826"></path><path d="M438.8352 585.1648h48.7936v48.7424h-48.7936z" fill="#012777" p-id="1827"></path><path d="M438.8352 536.3712h48.7936v48.7936h-48.7936z" fill="#DEE6FC" p-id="1828"></path><path d="M438.8352 487.6288h48.7936v48.7424h-48.7936z" fill="#012777" p-id="1829"></path><path d="M438.8352 438.8352h48.7936v48.7936h-48.7936zM438.8352 390.0928h48.7936v48.7424h-48.7936zM438.8352 341.3504h48.7936v48.7424h-48.7936zM438.8352 292.5568h48.7936v48.7936h-48.7936z" fill="#DD75A1" p-id="1830"></path><path d="M438.8352 243.8144h48.7936v48.7424h-48.7936z" fill="#DEE6FC" p-id="1831"></path><path d="M438.8352 195.072h48.7936v48.7424h-48.7936z" fill="#012777" p-id="1832"></path><path d="M438.8352 146.2784h48.7936v48.7936h-48.7936z" fill="#375AA4" p-id="1833"></path><path d="M438.8352 97.536h48.7936v48.7424h-48.7936z" fill="#A2D8EA" p-id="1834"></path><path d="M438.8352 48.7424h48.7936v48.7936h-48.7936zM390.0928 926.464h48.7424v48.7936h-48.7424z" fill="#012777" p-id="1835"></path><path d="M390.0928 877.7216h48.7424v48.7424h-48.7424zM390.0928 828.928h48.7424v48.7936h-48.7424zM390.0928 780.1856h48.7424v48.7424h-48.7424z" fill="#375AA4" p-id="1836"></path><path d="M390.0928 731.4432h48.7424v48.7424h-48.7424zM390.0928 682.6496h48.7424v48.7936h-48.7424zM390.0928 633.9072h48.7424v48.7424h-48.7424z" fill="#A2D8EA" p-id="1837"></path><path d="M390.0928 585.1648h48.7424v48.7424h-48.7424z" fill="#012777" p-id="1838"></path><path d="M390.0928 536.3712h48.7424v48.7936h-48.7424z" fill="#DEE6FC" p-id="1839"></path><path d="M390.0928 487.6288h48.7424v48.7424h-48.7424z" fill="#012777" p-id="1840"></path><path d="M390.0928 438.8352h48.7424v48.7936h-48.7424zM390.0928 390.0928h48.7424v48.7424h-48.7424zM390.0928 341.3504h48.7424v48.7424h-48.7424zM390.0928 292.5568h48.7424v48.7936h-48.7424z" fill="#DD75A1" p-id="1841"></path><path d="M390.0928 243.8144h48.7424v48.7424h-48.7424z" fill="#DEE6FC" p-id="1842"></path><path d="M390.0928 195.072h48.7424v48.7424h-48.7424z" fill="#012777" p-id="1843"></path><path d="M390.0928 146.2784h48.7424v48.7936h-48.7424z" fill="#375AA4" p-id="1844"></path><path d="M390.0928 97.536h48.7424v48.7424h-48.7424z" fill="#A2D8EA" p-id="1845"></path><path d="M390.0928 48.7424h48.7424v48.7936h-48.7424zM341.3504 926.464h48.7424v48.7936h-48.7424z" fill="#012777" p-id="1846"></path><path d="M341.3504 877.7216h48.7424v48.7424h-48.7424zM341.3504 828.928h48.7424v48.7936h-48.7424z" fill="#375AA4" p-id="1847"></path><path d="M341.3504 780.1856h48.7424v48.7424h-48.7424z" fill="#A2D8EA" p-id="1848"></path><path d="M341.3504 731.4432h48.7424v48.7424h-48.7424zM341.3504 682.6496h48.7424v48.7936h-48.7424zM341.3504 633.9072h48.7424v48.7424h-48.7424z" fill="#A2D8EA" p-id="1849"></path><path d="M341.3504 585.1648h48.7424v48.7424h-48.7424z" fill="#012777" p-id="1850"></path><path d="M341.3504 536.3712h48.7424v48.7936h-48.7424z" fill="#DEE6FC" p-id="1851"></path><path d="M341.3504 487.6288h48.7424v48.7424h-48.7424z" fill="#012777" p-id="1852"></path><path d="M341.3504 438.8352h48.7424v48.7936h-48.7424zM341.3504 390.0928h48.7424v48.7424h-48.7424zM341.3504 341.3504h48.7424v48.7424h-48.7424zM341.3504 292.5568h48.7424v48.7936h-48.7424z" fill="#DD75A1" p-id="1853"></path><path d="M341.3504 243.8144h48.7424v48.7424h-48.7424z" fill="#DEE6FC" p-id="1854"></path><path d="M341.3504 195.072h48.7424v48.7424h-48.7424z" fill="#012777" p-id="1855"></path><path d="M341.3504 146.2784h48.7424v48.7936h-48.7424z" fill="#375AA4" p-id="1856"></path><path d="M341.3504 97.536h48.7424v48.7424h-48.7424z" fill="#A2D8EA" p-id="1857"></path><path d="M341.3504 48.7424h48.7424v48.7936h-48.7424zM292.5568 926.464h48.7936v48.7936h-48.7936z" fill="#012777" p-id="1858"></path><path d="M292.5568 877.7216h48.7936v48.7424h-48.7936z" fill="#375AA4" p-id="1859"></path><path d="M292.5568 828.928h48.7936v48.7936h-48.7936zM292.5568 780.1856h48.7936v48.7424h-48.7936z" fill="#A2D8EA" p-id="1860"></path><path d="M292.5568 731.4432h48.7936v48.7424h-48.7936zM292.5568 682.6496h48.7936v48.7936h-48.7936zM292.5568 633.9072h48.7936v48.7424h-48.7936z" fill="#A2D8EA" p-id="1861"></path><path d="M292.5568 585.1648h48.7936v48.7424h-48.7936z" fill="#012777" p-id="1862"></path><path d="M292.5568 536.3712h48.7936v48.7936h-48.7936z" fill="#DEE6FC" p-id="1863"></path><path d="M292.5568 487.6288h48.7936v48.7424h-48.7936z" fill="#012777" p-id="1864"></path><path d="M292.5568 438.8352h48.7936v48.7936h-48.7936zM292.5568 390.0928h48.7936v48.7424h-48.7936zM292.5568 341.3504h48.7936v48.7424h-48.7936zM292.5568 292.5568h48.7936v48.7936h-48.7936z" fill="#DD75A1" p-id="1865"></path><path d="M292.5568 243.8144h48.7936v48.7424h-48.7936z" fill="#DEE6FC" p-id="1866"></path><path d="M292.5568 195.072h48.7936v48.7424h-48.7936z" fill="#012777" p-id="1867"></path><path d="M292.5568 146.2784h48.7936v48.7936h-48.7936zM292.5568 97.536h48.7936v48.7424h-48.7936z" fill="#A2D8EA" p-id="1868"></path><path d="M292.5568 48.7424h48.7936v48.7936h-48.7936zM243.8144 877.7216h48.7424v48.7424h-48.7424zM243.8144 828.928h48.7424v48.7936h-48.7424zM243.8144 780.1856h48.7424v48.7424h-48.7424z" fill="#012777" p-id="1869"></path><path d="M243.8144 731.4432h48.7424v48.7424h-48.7424zM243.8144 682.6496h48.7424v48.7936h-48.7424zM243.8144 633.9072h48.7424v48.7424h-48.7424z" fill="#012777" p-id="1870"></path><path d="M243.8144 585.1648h48.7424v48.7424h-48.7424zM243.8144 536.3712h48.7424v48.7936h-48.7424z" fill="#DEE6FC" p-id="1871"></path><path d="M243.8144 487.6288h48.7424v48.7424h-48.7424z" fill="#012777" p-id="1872"></path><path d="M243.8144 438.8352h48.7424v48.7936h-48.7424zM243.8144 390.0928h48.7424v48.7424h-48.7424z" fill="#DD75A1" p-id="1873"></path><path d="M243.8144 341.3504h48.7424v48.7424h-48.7424z" fill="#012777" p-id="1874"></path><path d="M243.8144 292.5568h48.7424v48.7936h-48.7424z" fill="#DD75A1" p-id="1875"></path><path d="M243.8144 243.8144h48.7424v48.7424h-48.7424z" fill="#DEE6FC" p-id="1876"></path><path d="M243.8144 195.072h48.7424v48.7424h-48.7424zM243.8144 146.2784h48.7424v48.7936h-48.7424zM243.8144 97.536h48.7424v48.7424h-48.7424zM195.072 780.1856h48.7424v48.7424H195.072z" fill="#012777" p-id="1877"></path><path d="M195.072 731.4432h48.7424v48.7424H195.072z" fill="#DEE6FC" p-id="1878"></path><path d="M195.072 682.6496h48.7424v48.7936H195.072z" fill="#DD75A1" p-id="1879"></path><path d="M195.072 633.9072h48.7424v48.7424H195.072z" fill="#012777" p-id="1880"></path><path d="M195.072 585.1648h48.7424v48.7424H195.072zM195.072 536.3712h48.7424v48.7936H195.072z" fill="#DEE6FC" p-id="1881"></path><path d="M195.072 487.6288h48.7424v48.7424H195.072z" fill="#012777" p-id="1882"></path><path d="M195.072 438.8352h48.7424v48.7936H195.072z" fill="#DD75A1" p-id="1883"></path><path d="M195.072 390.0928h48.7424v48.7424H195.072z" fill="#012777" p-id="1884"></path><path d="M195.072 341.3504h48.7424v48.7424H195.072z" fill="#A2D8EA" p-id="1885"></path><path d="M195.072 292.5568h48.7424v48.7936H195.072z" fill="#012777" p-id="1886"></path><path d="M195.072 243.8144h48.7424v48.7424H195.072z" fill="#DEE6FC" p-id="1887"></path><path d="M195.072 195.072h48.7424v48.7424H195.072zM146.2784 780.1856h48.7936v48.7424h-48.7936z" fill="#012777" p-id="1888"></path><path d="M146.2784 731.4432h48.7936v48.7424h-48.7936z" fill="#DEE6FC" p-id="1889"></path><path d="M146.2784 682.6496h48.7936v48.7936h-48.7936zM146.2784 633.9072h48.7936v48.7424h-48.7936z" fill="#DD75A1" p-id="1890"></path><path d="M146.2784 585.1648h48.7936v48.7424h-48.7936zM146.2784 536.3712h48.7936v48.7936h-48.7936z" fill="#012777" p-id="1891"></path><path d="M146.2784 487.6288h48.7936v48.7424h-48.7936zM146.2784 438.8352h48.7936v48.7936h-48.7936zM146.2784 390.0928h48.7936v48.7424h-48.7936z" fill="#DD75A1" p-id="1892"></path><path d="M146.2784 341.3504h48.7936v48.7424h-48.7936z" fill="#012777" p-id="1893"></path><path d="M146.2784 292.5568h48.7936v48.7936h-48.7936z" fill="#DD75A1" p-id="1894"></path><path d="M146.2784 243.8144h48.7936v48.7424h-48.7936z" fill="#DEE6FC" p-id="1895"></path><path d="M146.2784 195.072h48.7936v48.7424h-48.7936zM97.536 780.1856h48.7424v48.7424h-48.7424z" fill="#012777" p-id="1896"></path><path d="M97.536 731.4432h48.7424v48.7424h-48.7424zM97.536 682.6496h48.7424v48.7936h-48.7424zM97.536 633.9072h48.7424v48.7424h-48.7424zM97.536 585.1648h48.7424v48.7424h-48.7424zM97.536 536.3712h48.7424v48.7936h-48.7424zM97.536 487.6288h48.7424v48.7424h-48.7424zM97.536 438.8352h48.7424v48.7936h-48.7424zM97.536 390.0928h48.7424v48.7424h-48.7424zM97.536 341.3504h48.7424v48.7424h-48.7424zM97.536 292.5568h48.7424v48.7936h-48.7424zM97.536 243.8144h48.7424v48.7424h-48.7424z" fill="#DEE6FC" p-id="1897"></path><path d="M97.536 195.072h48.7424v48.7424h-48.7424zM48.7424 731.4432h48.7936v48.7424H48.7424zM48.7424 682.6496h48.7936v48.7936H48.7424zM48.7424 633.9072h48.7936v48.7424H48.7424zM48.7424 585.1648h48.7936v48.7424H48.7424zM48.7424 536.3712h48.7936v48.7936H48.7424zM48.7424 487.6288h48.7936v48.7424H48.7424zM48.7424 438.8352h48.7936v48.7936H48.7424zM48.7424 390.0928h48.7936v48.7424H48.7424zM48.7424 341.3504h48.7936v48.7424H48.7424zM48.7424 292.5568h48.7936v48.7936H48.7424zM48.7424 243.8144h48.7936v48.7424H48.7424z" fill="#012777" p-id="1898"></path></svg>